<svg id="e2165270-d70d-4354-9ac9-1848d055b0c2" xmlns="http://www.w3.org/2000/svg" xmlns:xlink="http://www.w3.org/1999/xlink" viewBox="0 0 971.44 662"><defs><style>.cls-1{opacity:0.7;}.cls-2{fill:url(#linear-gradient);}.cls-3{fill:#8c1616;}.cls-4{fill:#e0e0e0;}.cls-5{fill:#fff;}.cls-6{opacity:0.1;isolation:isolate;}.cls-7{fill:#eee;}.cls-8{fill:#3f3d56;}.cls-9{fill:#f2f2f2;}.cls-10{fill:#6c63ff;}.cls-11{fill:url(#linear-gradient-2);}.cls-12{fill:#efd565;}.cls-13{fill:#fcba9f;}.cls-14{fill:url(#linear-gradient-3);}.cls-15{fill:#535461;}</style><linearGradient id="linear-gradient" x1="1014.87" y1="-72.52" x2="1014.87" y2="19.29" gradientTransform="matrix(1, 0, 0, -1, -114.28, 543)" gradientUnits="userSpaceOnUse"><stop offset="0" stop-color="gray" stop-opacity="0.25"/><stop offset="0.54" stop-color="gray" stop-opacity="0.12"/><stop offset="1" stop-color="gray" stop-opacity="0.1"/></linearGradient><linearGradient id="linear-gradient-2" x1="420.71" y1="11.89" x2="420.71" y2="543" xlink:href="#linear-gradient"/><linearGradient id="linear-gradient-3" x1="305.78" y1="46.4" x2="305.78" y2="284.3" gradientTransform="matrix(1, 0, 0, -1, 0, 662)" xlink:href="#linear-gradient"/></defs><title>index_illustration_export</title><g class="cls-1"><path class="cls-2" d="M930.94,540.1V523.71H849v75.82a16,16,0,0,0,16,16h50a16,16,0,0,0,16-16h0v-16.8a21.32,21.32,0,0,0,0-42.63Zm0,34.43V548.3a13.12,13.12,0,1,1,0,26.23Z" transform="translate(0 0)"/></g><path class="cls-3" d="M928.31,542.67a19.46,19.46,0,1,0,19.45,19.46A19.46,19.46,0,0,0,928.31,542.67Zm0,31.43a12,12,0,1,1,12-12h0A12,12,0,0,1,928.31,574.1Z" transform="translate(0 0)"/><path class="cls-3" d="M853.46,527.7h74.85v74.07a9.75,9.75,0,0,1-9.75,9.75H863.21a9.75,9.75,0,0,1-9.75-9.75h0V527.7Z" transform="translate(0 0)"/><rect class="cls-4" y="615.6" width="971.44" height="32.93"/><circle class="cls-5" cx="305.78" cy="498.85" r="13.47"/><rect class="cls-4" x="41.16" y="648.53" width="889.11" height="13.47"/><rect class="cls-6" x="41.16" y="648.53" width="889.11" height="4.49"/><path class="cls-6" d="M914.83,527.7v69.23a14.59,14.59,0,0,1-14.59,14.59h7.48a14.6,14.6,0,0,0,14.6-14.59V527.7Z" transform="translate(0 0)"/><path id="coffee_steam" class="cls-7" d="M868.23,471.91c-1.26.21-2.68.55-3.3,1.67-1,1.78.8,3.79,2.42,5,3,2.26,6.16,4.48,8.2,7.63s2.68,7.56.45,10.58c-2.91,3.95-9.85,4.8-10.53,9.65-.43,3.12,2.27,5.78,5,7.34,6.74,3.87,15.43,4.9,20.31,10.94,2-4.15,6.54-6.56,11.05-7.58s9.18-.95,13.75-1.65c1.47-.22,3.13-.67,3.79-2,1.28-2.59-2.36-5.69-1.11-8.3,1-2,3.77-1.82,5.82-2.61,3.33-1.29,4.71-5.59,3.76-9s-3.62-6.15-6.43-8.36c-7.59-6-16.71-9.47-25.93-12-4.29-1.17-9.33-3-13.78-3.19S872.49,471.18,868.23,471.91Z" transform="translate(0 0)"/><rect class="cls-8" x="499.02" y="14.34" width="453.19" height="309.22"/><g id="top_code_group"><path id="code_line_1" class="cls-9" d="M720.46,56.6H608.65a1.29,1.29,0,0,1-1.36-1.18,1.28,1.28,0,0,1,1.36-1.18H720.46a1.27,1.27,0,0,1,1.35,1.18A1.29,1.29,0,0,1,720.46,56.6Z" transform="translate(0 0)"/><path id="code_line_4" class="cls-9" d="M842.84,69.58H667a1.19,1.19,0,1,1,0-2.36H842.84a1.19,1.19,0,1,1,0,2.36Z" transform="translate(0 0)"/><path id="code_line_5" class="cls-9" d="M721,82.56H609.2a1.19,1.19,0,1,1,0-2.36H721a1.19,1.19,0,1,1,0,2.36Z" transform="translate(0 0)"/><path id="code_line_6" class="cls-9" d="M842.84,82.79H731a1.19,1.19,0,1,1,0-2.36h111.8a1.19,1.19,0,1,1,0,2.36Z" transform="translate(0 0)"/><path id="code_line_7" class="cls-9" d="M721.27,95.53H609.47a1.19,1.19,0,1,1,0-2.36h111.8a1.19,1.19,0,1,1,0,2.36Z" transform="translate(0 0)"/><path id="code_line_9" class="cls-9" d="M721.54,108.51H609.74a1.19,1.19,0,1,1,0-2.36h111.8a1.19,1.19,0,1,1,0,2.36Z" transform="translate(0 0)"/><path id="code_line_2" class="cls-9" d="M772.29,56.83h-32a1.19,1.19,0,1,1,0-2.36h32a1.19,1.19,0,1,1,0,2.36Z" transform="translate(0 0)"/><path id="code_line_8" class="cls-9" d="M772.29,95.53h-32a1.19,1.19,0,1,1,0-2.36h32a1.19,1.19,0,1,1,0,2.36Z" transform="translate(0 0)"/><path id="code_line_10" class="cls-9" d="M772.29,108.28h-32a1.28,1.28,0,0,1-1.36-1.18,1.27,1.27,0,0,1,1.35-1.18h32a1.19,1.19,0,1,1,0,2.36Z" transform="translate(0 0)"/><path id="code_line_11" class="cls-9" d="M826,108.28H794a1.19,1.19,0,1,1,0-2.36h32a1.19,1.19,0,1,1,0,2.36Z" transform="translate(0 0)"/><path id="code_line_3" class="cls-9" d="M640.4,69.58h-32a1.19,1.19,0,1,1,0-2.36h32a1.19,1.19,0,1,1,0,2.36Z" transform="translate(0 0)"/></g><g id="bottom_code_group"><path id="code_line_12" class="cls-9" d="M720.59,247.75H608.79a1.19,1.19,0,1,1,0-2.36h111.8a1.19,1.19,0,1,1,0,2.36Z" transform="translate(0 0)"/><path id="code_line_15" class="cls-9" d="M720.05,273.71H608.25a1.19,1.19,0,1,1,0-2.36h111.8a1.19,1.19,0,1,1,0,2.36Z" transform="translate(0 0)"/><path id="code_line_18" class="cls-9" d="M720.32,286.69H608.52a1.19,1.19,0,1,1,0-2.36h111.8a1.19,1.19,0,1,1,0,2.36Z" transform="translate(0 0)"/><path id="code_line_16" class="cls-9" d="M768.08,273.94h-32a1.19,1.19,0,1,1,0-2.36h32a1.19,1.19,0,1,1,0,2.36Z" transform="translate(0 0)"/><path id="code_line_19" class="cls-9" d="M768.08,286.69h-32a1.19,1.19,0,1,1,0-2.36h32a1.19,1.19,0,1,1,0,2.36Z" transform="translate(0 0)"/><path id="code_line_17" class="cls-9" d="M821.81,273.94h-32a1.19,1.19,0,1,1,0-2.36h32a1.19,1.19,0,1,1,0,2.36Z" transform="translate(0 0)"/><path id="code_line_14" class="cls-9" d="M843,260.73H667.13a1.19,1.19,0,1,1,0-2.36H843a1.19,1.19,0,1,1,0,2.36Z" transform="translate(0 0)"/><path id="code_line_13" class="cls-9" d="M640.54,260.73h-32a1.19,1.19,0,1,1,0-2.36h32a1.19,1.19,0,1,1,0,2.36Z" transform="translate(0 0)"/><path id="code_line_21" class="cls-9" d="M843,299.9H667.13a1.19,1.19,0,1,1,0-2.36H843a1.19,1.19,0,1,1,0,2.36Z" transform="translate(0 0)"/><path id="code_line_20" class="cls-9" d="M640.54,299.9h-32a1.19,1.19,0,1,1,0-2.36h32a1.19,1.19,0,1,1,0,2.36Z" transform="translate(0 0)"/></g><polygon id="left_chevron" class="cls-10" points="693.59 139.66 650.17 176.95 693.59 214.24 703.36 205.74 670.53 177.19 703.63 148.4 693.59 139.66"/><polygon id="right_chevron" class="cls-10" points="757.63 139.66 801.05 176.95 757.63 214.24 747.87 205.74 780.7 177.19 747.59 148.4 757.63 139.66"/><ellipse class="cls-10" cx="511.07" cy="22.2" rx="5.42" ry="4.72"/><ellipse class="cls-10" cx="525.53" cy="22.2" rx="5.42" ry="4.72"/><ellipse class="cls-10" cx="540" cy="22.2" rx="5.42" ry="4.72"/><rect class="cls-6" x="499.02" y="30.06" width="453.19" height="1.57"/><g class="cls-1"><path class="cls-11" d="M459,395.26c-10.41-37.79-69.44-65.38-113.85-71.5,0-.28,0-.56,0-.84V290.57l.15-.05V289.3a111,111,0,0,0,67-70.24,121,121,0,0,0,7.15-15.41c4.74-1.73,8.32-9.55,8.32-18.94a33.25,33.25,0,0,0-1.34-9.5,121.88,121.88,0,0,0,.89-14.42,120.16,120.16,0,0,0-39.7-89.38,23.59,23.59,0,0,0,.38-5.87c-1-15.53-17.59-26.08-33.14-26.79a32.8,32.8,0,0,0,5.54-34.63c-9.92,14.44-30.26,16-47.78,16.09,7.56-2.93,11-13.4,6.57-20.21-18.31,24.53-54,29.08-75.76,50.59a64,64,0,0,0-11.78,16.07,120.23,120.23,0,0,0-45.32,94.13,121.8,121.8,0,0,0,.87,14.29,33.42,33.42,0,0,0-1.38,9.63c0,9.44,3.62,17.28,8.39,19a121.15,121.15,0,0,0,7.18,15.46,110.92,110.92,0,0,0,66.55,70v33.8c0,.26,0,.52,0,.78-44.59,6-104.08,33.83-114.4,71.92-8.91,32.9-18.43,69-23.16,90.24,40.57,28.51,125.69,45.25,179,45.25C360.19,531.11,443,516,482.41,490,478.14,466.73,468.33,429,459,395.26Z" transform="translate(0 0)"/></g><path class="cls-3" d="M309.39,521.72c48.9,0,128.82-14.57,166.8-39.61-4.11-22.48-13.58-58.87-22.55-91.43-11.42-41.47-83.53-70.21-126.54-70.21H285.65C242.5,320.47,170.3,349.38,159,391c-8.6,31.74-17.78,66.59-22.34,87.06C175.81,505.58,257.93,521.72,309.39,521.72Z" transform="translate(0 0)"/><circle class="cls-12" cx="306.87" cy="164.5" r="116.24"/><path class="cls-6" d="M269.35,261.31h74.48v59.58a37.24,37.24,0,0,1-37.24,37.24h0a37.24,37.24,0,0,1-37.24-37.24V261.31Z" transform="translate(0 0)"/><path class="cls-13" d="M280,258.55h53.11a10.69,10.69,0,0,1,10.68,10.69v48.9a37.23,37.23,0,0,1-37.24,37.23h0a37.24,37.24,0,0,1-37.24-37.23v-48.9A10.7,10.7,0,0,1,280,258.55Z" transform="translate(0 0)"/><path class="cls-6" d="M269.49,289.43a107.16,107.16,0,0,0,74.48.21v-9.15H269.49Z" transform="translate(0 0)"/><circle class="cls-13" cx="306.87" cy="187.67" r="106.75"/><path class="cls-6" d="M230.83,90.56s45,91.33,171.9,38.28L373.18,82.51l-52.37-18.8Z" transform="translate(0 0)"/><path class="cls-12" d="M230.83,89.22s45,91.32,171.9,38.28L373.18,81.16l-52.37-18.8Z" transform="translate(0 0)"/><path class="cls-12" d="M230.43,83.05a61.61,61.61,0,0,1,15.28-24.86c21-20.76,55.43-25.14,73.08-48.81,4.24,6.57,1,16.67-6.33,19.49,16.9-.1,36.53-1.59,46.09-15.51a31.64,31.64,0,0,1-5.34,33.41c15,.68,31,10.85,32,25.83.65,10-5.61,19.43-13.81,25.15s-18.12,8.35-27.88,10.51C315,114.54,211.83,140.88,230.43,83.05Z" transform="translate(0 0)"/><ellipse class="cls-13" cx="199.88" cy="187.57" rx="9.74" ry="18.62"/><g class="cls-1"><rect class="cls-14" x="99.22" y="377.7" width="413.12" height="237.89" rx="14.5"/></g><rect class="cls-15" x="106.7" y="382.09" width="398.16" height="233.5" rx="26.84"/></svg>