<svg id="Layer_1" data-name="Layer 1" xmlns="http://www.w3.org/2000/svg" viewBox="0 0 24 19.46"><path d="M24,2.31a9.59,9.59,0,0,1-2.83.77A4.93,4.93,0,0,0,23.34.36a10.08,10.08,0,0,1-3.13,1.19A4.93,4.93,0,0,0,11.82,6,14,14,0,0,1,1.67.9,4.93,4.93,0,0,0,3.19,7.47,4.68,4.68,0,0,1,1,6.86a4.94,4.94,0,0,0,3.91,4.89,4.76,4.76,0,0,1-2.22.08,4.92,4.92,0,0,0,4.6,3.42,9.94,9.94,0,0,1-7.29,2,13.92,13.92,0,0,0,7.55,2.21,13.92,13.92,0,0,0,14-13.82c0-.27,0-.55,0-.82A10.07,10.07,0,0,0,24,2.31Z" transform="translate(0 0)" fill="#97c475"/></svg>